<?xml version="1.0" encoding="iso-8859-1"?>
<!-- Generator: Adobe Illustrator 18.0.0, SVG Export Plug-In . SVG Version: 6.00 Build 0)  -->
<!DOCTYPE svg PUBLIC "-//W3C//DTD SVG 1.1//EN" "http://www.w3.org/Graphics/SVG/1.1/DTD/svg11.dtd">
<svg version="1.1" id="Capa_1" xmlns="http://www.w3.org/2000/svg" xmlns:xlink="http://www.w3.org/1999/xlink" x="0px" y="0px"
	 viewBox="0 0 477 477" style="enable-background:new 0 0 477 477;" xml:space="preserve">
<path d="M462,55H15C6.716,55,0,61.715,0,70v298c0,8.284,6.716,15,15,15h263.7v29c0,3.449,1.777,6.654,4.702,8.481
	c1.614,1.009,3.453,1.519,5.298,1.519c1.497,0,2.998-0.336,4.387-1.014l28.393-13.858l28.394,13.858
	c3.103,1.515,6.763,1.322,9.685-0.505c2.925-1.827,4.702-5.032,4.702-8.481v-29H462c8.284,0,15-6.716,15-15V70
	C477,61.715,470.284,55,462,55z M278.172,270.692c0-23.879,19.428-43.307,43.307-43.307c23.88,0,43.308,19.428,43.308,43.307
	c0,23.88-19.428,43.308-43.308,43.308C297.6,314,278.172,294.572,278.172,270.692z M364.26,317.308
	c12.608-11.58,20.526-28.188,20.526-46.616c0-34.907-28.399-63.307-63.308-63.307c-34.907,0-63.307,28.399-63.307,63.307
	c0,18.429,7.92,35.038,20.528,46.618V324H102.072C97.978,302.228,80.771,285.022,59,280.927V157.072
	c21.771-4.095,38.978-21.301,43.072-43.072h272.855c4.095,21.771,21.301,38.978,43.072,43.072v123.855
	c-21.771,4.095-38.978,21.301-43.072,43.072H364.26V317.308z M344.26,395.991l-18.394-8.978c-2.77-1.352-6.004-1.352-8.773,0
	l-18.393,8.978v-66.247c7.074,2.738,14.75,4.256,22.778,4.256c8.03,0,15.707-1.519,22.781-4.257V395.991z M447,353h-82.74v-9H384
	c5.522,0,10-4.478,10-10c0-18.748,15.252-34,34-34c5.522,0,10-4.478,10-10V148c0-5.522-4.478-10-10-10c-18.748,0-34-15.252-34-34
	c0-5.522-4.478-10-10-10H93c-5.522,0-10,4.478-10,10c0,18.748-15.252,34-34,34c-5.522,0-10,4.478-10,10v142c0,5.522,4.478,10,10,10
	c18.748,0,34,15.252,34,34c0,5.522,4.478,10,10,10h185.7v9H30V85h417V353z"/>
<g>
</g>
<g>
</g>
<g>
</g>
<g>
</g>
<g>
</g>
<g>
</g>
<g>
</g>
<g>
</g>
<g>
</g>
<g>
</g>
<g>
</g>
<g>
</g>
<g>
</g>
<g>
</g>
<g>
</g>
</svg>
